<?xml version="1.0" standalone="no"?>
<!DOCTYPE svg PUBLIC "-//W3C//DTD SVG 20010904//EN"
 "http://www.w3.org/TR/2001/REC-SVG-20010904/DTD/svg10.dtd">
<svg version="1.0" xmlns="http://www.w3.org/2000/svg"
 width="300.000000pt" height="102.000000pt" viewBox="0 0 300.000000 102.000000"
 preserveAspectRatio="xMidYMid meet">
<metadata>
Created by potrace 1.10, written by Peter Selinger 2001-2011
</metadata>
<g transform="translate(0.000000,102.000000) scale(0.100000,-0.100000)"
fill="#ffffff" stroke="none">
<path d="M10 510 l0 -500 1490 0 1490 0 0 500 0 500 -1490 0 -1490 0 0 -500z
m2960 125 l0 -355 -1470 0 -1470 0 0 355 0 355 1470 0 1470 0 0 -355z m0 -495
l0 -110 -1470 0 -1470 0 0 110 0 110 1470 0 1470 0 0 -110z"/>
<path d="M1890 640 c0 -193 1 -200 20 -200 16 0 20 7 20 35 0 32 33 95 50 95
3 0 23 -29 44 -65 26 -45 44 -65 57 -65 23 0 18 12 -44 103 l-39 59 29 31 c16
18 37 42 47 55 19 22 19 22 -2 22 -14 0 -40 -23 -78 -70 -31 -38 -59 -70 -63
-70 -3 0 -5 61 -3 135 3 131 2 135 -17 135 -20 0 -21 -5 -21 -200z"/>
<path d="M2780 758 c0 -80 0 -81 -19 -64 -25 22 -84 23 -116 2 -41 -27 -58
-71 -53 -142 3 -49 9 -69 28 -89 34 -36 81 -42 125 -16 43 25 46 26 39 6 -4
-10 0 -15 15 -15 21 0 21 3 21 200 0 193 -1 200 -20 200 -18 0 -20 -7 -20 -82z
m-17 -92 c13 -10 17 -28 17 -88 0 -63 -3 -78 -20 -93 -26 -23 -85 -25 -106 -3
-35 35 -34 139 1 178 21 23 81 26 108 6z"/>
<path d="M833 804 c-3 -8 -1 -20 5 -26 16 -16 42 -2 42 22 0 24 -38 28 -47 4z"/>
<path d="M2162 798 c2 -15 10 -23 23 -23 30 0 27 39 -3 43 -20 3 -23 0 -20
-20z"/>
<path d="M305 798 c-3 -7 -31 -91 -63 -185 -55 -162 -57 -173 -38 -173 17 0
24 12 38 58 l17 57 73 -5 73 -5 14 -52 c11 -43 18 -53 35 -53 21 0 19 8 -40
183 -52 155 -64 182 -83 185 -11 2 -23 -3 -26 -10z m54 -110 c13 -46 25 -89
28 -95 3 -10 -12 -13 -57 -13 -55 0 -62 2 -57 18 28 99 52 172 57 172 3 0 16
-37 29 -82z"/>
<path d="M624 706 c-18 -8 -35 -19 -38 -25 -11 -18 -26 -13 -26 9 0 11 -7 20
-15 20 -13 0 -15 -22 -15 -135 0 -128 1 -135 20 -135 19 0 20 7 20 99 0 96 1
100 26 120 30 23 74 27 92 9 8 -8 12 -49 12 -120 0 -101 1 -108 20 -108 19 0
20 7 20 105 0 118 -10 150 -53 165 -16 5 -30 10 -31 10 -1 -1 -15 -7 -32 -14z"/>
<path d="M1069 708 c-13 -5 -32 -16 -41 -25 -17 -15 -18 -15 -18 5 0 15 -6 22
-20 22 -19 0 -20 -7 -20 -135 0 -128 1 -135 20 -135 19 0 20 7 20 99 0 96 1
100 26 120 15 12 37 21 50 21 41 0 54 -34 54 -142 0 -91 1 -98 20 -98 19 0 20
7 20 98 0 90 2 100 23 120 26 24 66 29 85 10 8 -8 12 -49 12 -120 0 -101 1
-108 20 -108 19 0 20 7 20 105 0 57 -5 115 -11 129 -22 48 -87 51 -135 5 -21
-20 -21 -20 -37 4 -18 28 -53 38 -88 25z"/>
<path d="M1500 707 c-109 -38 -107 -224 3 -265 31 -12 44 -13 82 -2 43 12 59
39 19 32 -75 -13 -80 -13 -106 7 -33 26 -54 79 -33 87 7 3 50 4 94 2 l81 -3 0
33 c0 48 -26 91 -65 108 -19 8 -36 14 -37 13 -2 0 -19 -5 -38 -12z m97 -58
c27 -53 20 -59 -68 -59 -79 0 -80 0 -73 23 22 73 111 96 141 36z"/>
<path d="M2394 706 c-18 -8 -35 -19 -38 -25 -11 -18 -26 -13 -26 9 0 11 -7 20
-15 20 -13 0 -15 -22 -15 -135 0 -128 1 -135 20 -135 19 0 20 7 20 99 0 96 1
100 26 120 34 27 80 27 94 2 5 -11 10 -65 10 -120 0 -94 1 -101 20 -101 19 0
20 7 20 109 0 100 -2 112 -22 135 -30 32 -56 38 -94 22z"/>
<path d="M835 575 c0 -128 1 -135 20 -135 19 0 20 7 20 135 0 128 -1 135 -20
135 -19 0 -20 -7 -20 -135z"/>
<path d="M2160 575 c0 -128 1 -135 20 -135 19 0 20 7 20 135 0 128 -1 135 -20
135 -19 0 -20 -7 -20 -135z"/>
<path d="M1690 575 c0 -12 13 -15 59 -15 43 0 60 4 65 15 4 12 -6 15 -59 15
-51 0 -65 -3 -65 -15z"/>
</g>
</svg>
